<svg xmlns="http://www.w3.org/2000/svg" version="1.1" xmlns:xlink="http://www.w3.org/1999/xlink" width="200" height="200"><svg xmlns="http://www.w3.org/2000/svg" version="1.1" xmlns:xlink="http://www.w3.org/1999/xlink" width="200" height="200"><svg xmlns="http://www.w3.org/2000/svg" version="1.1" xmlns:xlink="http://www.w3.org/1999/xlink" viewBox="0 0 200 200"><rect width="200" height="200" fill="url('#gradient')"></rect><defs><linearGradient id="gradient" gradientTransform="rotate(117 0.5 0.5)"><stop offset="0%" stop-color="#9c9c9c"></stop><stop offset="100%" stop-color="#ffffff"></stop></linearGradient></defs><g><g fill="#283855" transform="matrix(4.968461911693352,0,0,4.968461911693352,-1.752619909869992,135.32513972198657)" stroke="#739bab" stroke-width="0"><path d="M12.24-14.22L12.24-11.57L7.97-11.57L7.97 0L4.54 0L4.54-11.57L0.35-11.57L0.35-14.22L12.24-14.22ZM22.86-14.22L24.84-5.30L26.47-14.22L29.87-14.22L26.86 0L23.30 0L21.40-8.11L19.53 0L15.99 0L12.96-14.22L16.37-14.22L18.00-5.30L19.95-14.22L22.86-14.22ZM34.64-14.22L34.64-2.64L40.61-2.64L40.61 0L31.21 0L31.21-14.22L34.64-14.22Z"></path></g></g></svg></svg><style>@media (prefers-color-scheme: light) { :root { filter: none; } }
@media (prefers-color-scheme: dark) { :root { filter: none; } }
</style></svg>